<svg width="79" height="100" viewBox="0 0 79 100" fill="none" xmlns="http://www.w3.org/2000/svg">
<rect y="6" width="79" height="80" rx="10" fill="#2A8D52"/>
<path d="M50.527 34.7273V40.6222H26.1222V34.7273H50.527ZM33.4318 80V28.4787C33.4318 25.8849 34.041 23.7235 35.2592 21.9943C36.4775 20.2651 38.0593 18.9683 40.0046 18.1037C41.9499 17.2391 44.0033 16.8068 46.1648 16.8068C47.8743 16.8068 49.2694 16.9444 50.3501 17.2195C51.4309 17.4946 52.2365 17.75 52.767 17.9858L50.7628 23.9986C50.4091 23.8807 49.9179 23.7333 49.2891 23.5565C48.6799 23.3796 47.8743 23.2912 46.8722 23.2912C44.5732 23.2912 42.9128 23.8709 41.891 25.0302C40.8888 26.1895 40.3878 27.8892 40.3878 30.1293V80H33.4318Z" fill="#202020"/>
</svg>
