<svg width="79" height="100" viewBox="0 0 79 100" fill="none" xmlns="http://www.w3.org/2000/svg">
<rect y="6" width="79" height="80" rx="10" fill="#2A8D52"/>
<path d="M35.3665 80V34.7273H42.3224V80H35.3665ZM38.9034 27.1818C37.5476 27.1818 36.3784 26.7201 35.396 25.7965C34.4331 24.873 33.9517 23.7628 33.9517 22.4659C33.9517 21.169 34.4331 20.0588 35.396 19.1353C36.3784 18.2118 37.5476 17.75 38.9034 17.75C40.2592 17.75 41.4186 18.2118 42.3814 19.1353C43.3639 20.0588 43.8551 21.169 43.8551 22.4659C43.8551 23.7628 43.3639 24.873 42.3814 25.7965C41.4186 26.7201 40.2592 27.1818 38.9034 27.1818Z" fill="#202020"/>
</svg>
