<svg width="423" height="379" viewBox="0 0 423 379" fill="none" xmlns="http://www.w3.org/2000/svg">
<g filter="url(#filter0_d_9_290)">
<path d="M326.496 226.287L342.672 225.835" stroke="#53FA97" stroke-linecap="round"/>
<path d="M326.496 226.287L330.861 231.848" stroke="#53FA97" stroke-linecap="round"/>
<path d="M334.895 226.052L330.861 231.848" stroke="#53FA97" stroke-linecap="round"/>
<path d="M326.496 226.287L330.529 220.492" stroke="#53FA97" stroke-linecap="round"/>
<path d="M334.895 226.052L330.529 220.492" stroke="#53FA97" stroke-linecap="round"/>
<path d="M342.59 220.405L334.895 226.052" stroke="#53FA97" stroke-linecap="round"/>
<path d="M342.828 231.179L334.895 226.052" stroke="#53FA97" stroke-linecap="round"/>
<path d="M296.007 305.941L307.944 316.624" stroke="#53FA97" stroke-linecap="round"/>
<path d="M307.944 316.624L309.92 308.88" stroke="#53FA97" stroke-linecap="round"/>
<path d="M301.976 311.282L309.921 308.88" stroke="#53FA97" stroke-linecap="round"/>
<path d="M301.976 311.282L300.853 300.764" stroke="#53FA97" stroke-linecap="round"/>
<path d="M301.158 316.212L305.878 314.775" stroke="#53FA97" stroke-linecap="round"/>
<path d="M298.518 313.85L303.468 312.618" stroke="#53FA97" stroke-linecap="round"/>
<path d="M130.95 145.155L111.088 140.472" stroke="#53FA97" stroke-linecap="round"/>
<path d="M120.807 132.827L121.231 152.8" stroke="#53FA97" stroke-linecap="round"/>
<path d="M112.699 146.429L114.405 141.572" stroke="#53FA97" stroke-linecap="round"/>
<path d="M109.382 145.328L111.088 140.472" stroke="#53FA97" stroke-linecap="round"/>
<path d="M88.5752 274.604L103.64 268.826" stroke="#53FA97" stroke-linecap="round"/>
<path d="M98.3921 275.326L99.1499 270.548" stroke="#53FA97" stroke-linecap="round"/>
<path d="M95.7847 276.326L96.5424 271.548" stroke="#53FA97" stroke-linecap="round"/>
<path d="M99.1497 270.548L95.272 267.549" stroke="#53FA97" stroke-linecap="round"/>
<path d="M94.5144 272.326L95.2722 267.549" stroke="#53FA97" stroke-linecap="round"/>
<path d="M210.593 112.878L210.423 97.0564" stroke="#53FA97" stroke-linecap="round"/>
<path d="M205.04 105.024L210.463 100.86" stroke="#53FA97" stroke-linecap="round"/>
<path d="M210.552 109.075L215.975 104.911" stroke="#53FA97" stroke-linecap="round"/>
<path d="M210.464 100.86L215.975 104.911" stroke="#53FA97" stroke-linecap="round"/>
<path d="M205.04 105.024L210.552 109.075" stroke="#53FA97" stroke-linecap="round"/>
<path d="M204.999 101.22L210.423 97.0564" stroke="#53FA97" stroke-linecap="round"/>
<path d="M210.303 358.012V342.189" stroke="#53FA97" stroke-linecap="round"/>
<path d="M203.81 354.513L216.649 345.548" stroke="#53FA97" stroke-linecap="round"/>
<path d="M216.657 354.208L203.81 345.501" stroke="#53FA97" stroke-linecap="round"/>
<path d="M210.303 358.012L216.625 354.208" stroke="#53FA97" stroke-linecap="round"/>
<path d="M117.456 320.54L128.553 309.024" stroke="#53FA97" stroke-linecap="round"/>
<path d="M114.223 316.099L127.233 318.677" stroke="#53FA97" stroke-linecap="round"/>
<path d="M123.826 306.133L127.233 318.677" stroke="#53FA97" stroke-linecap="round"/>
<path d="M131.91 313.579L118.9 311.001" stroke="#53FA97" stroke-linecap="round"/>
<path d="M122.307 323.546L118.9 311.001" stroke="#53FA97" stroke-linecap="round"/>
<path d="M293.309 145.741L299.658 131.187" stroke="#53FA97" stroke-linecap="round"/>
<path d="M288.74 140.031L304.147 136.711" stroke="#53FA97" stroke-linecap="round"/>
<path d="M300.679 144.68L296.483 138.464" stroke="#53FA97" stroke-linecap="round"/>
<path d="M293.309 145.741L300.65 144.668" stroke="#53FA97" stroke-linecap="round"/>
<path d="M79.2185 227.032L95.3919 226.5" stroke="#53FA97" stroke-linecap="round"/>
<path d="M82.5769 220.569L92.1721 232.814" stroke="#53FA97" stroke-linecap="round"/>
<path d="M83.3203 233.113L91.7887 220.266" stroke="#53FA97" stroke-linecap="round"/>
<path d="M258.396 349.902L260.087 329.993" stroke="#53FA97" stroke-linecap="round"/>
<path d="M249.611 336.613L268.872 343.281" stroke="#53FA97" stroke-linecap="round"/>
<path d="M265.365 333.36L260.114 333.418" stroke="#53FA97" stroke-linecap="round"/>
<path d="M265.339 329.934L260.087 329.993" stroke="#53FA97" stroke-linecap="round"/>
<path d="M162.153 349.543L167.796 334.714" stroke="#53FA97" stroke-linecap="round"/>
<path d="M169.25 342.872L166.114 339.134" stroke="#53FA97" stroke-linecap="round"/>
<path d="M168.273 345.439L165.137 341.701" stroke="#53FA97" stroke-linecap="round"/>
<path d="M166.114 339.134L161.242 339.959" stroke="#53FA97" stroke-linecap="round"/>
<path d="M164.378 343.697L161.242 339.959" stroke="#53FA97" stroke-linecap="round"/>
<path d="M258.924 105.825L252.746 120.449" stroke="#53FA97" stroke-linecap="round"/>
<path d="M263.559 111.482L248.192 114.976" stroke="#53FA97" stroke-linecap="round"/>
<path d="M251.566 106.969L260.041 119.812" stroke="#53FA97" stroke-linecap="round"/>
<path d="M334.242 272.108L319.076 266.59" stroke="#53FA97" stroke-linecap="round"/>
<path d="M328.566 264.338L322.722 267.916" stroke="#53FA97" stroke-linecap="round"/>
<path d="M330.597 270.781L324.752 274.359" stroke="#53FA97" stroke-linecap="round"/>
<path d="M322.722 267.916L324.752 274.359" stroke="#53FA97" stroke-linecap="round"/>
<path d="M328.566 264.338L330.597 270.781" stroke="#53FA97" stroke-linecap="round"/>
<path d="M324.92 263.012L319.076 266.59" stroke="#53FA97" stroke-linecap="round"/>
<path d="M319.392 182.197L334.264 175.96" stroke="#53FA97" stroke-linecap="round"/>
<path d="M318.237 176.864L329.118 184.299" stroke="#53FA97" stroke-linecap="round"/>
<path d="M331.108 171.466L329.118 184.299" stroke="#53FA97" stroke-linecap="round"/>
<path d="M335.486 181.446L324.605 174.011" stroke="#53FA97" stroke-linecap="round"/>
<path d="M322.616 186.844L324.605 174.011" stroke="#53FA97" stroke-linecap="round"/>
<path d="M167.397 121.222L161.1 106.647" stroke="#53FA97" stroke-linecap="round"/>
<path d="M167.397 121.222L171.114 115.228" stroke="#53FA97" stroke-linecap="round"/>
<path d="M164.127 113.654L171.114 115.228" stroke="#53FA97" stroke-linecap="round"/>
<path d="M167.397 121.222L160.411 119.649" stroke="#53FA97" stroke-linecap="round"/>
<path d="M164.127 113.654L160.411 119.649" stroke="#53FA97" stroke-linecap="round"/>
<path d="M155.954 108.689L164.128 113.654" stroke="#53FA97" stroke-linecap="round"/>
<path d="M166.137 104.566L164.128 113.654" stroke="#53FA97" stroke-linecap="round"/>
<path d="M103.514 184.928L88.2899 179.563" stroke="#53FA97" stroke-linecap="round"/>
<path d="M102.349 177.769L89.37 186.539" stroke="#53FA97" stroke-linecap="round"/>
<path d="M97.6997 189.483L95.9019 182.246" stroke="#53FA97" stroke-linecap="round"/>
<path d="M103.514 184.928L97.7103 189.454" stroke="#53FA97" stroke-linecap="round"/>
<path d="M115.703 289.269L102.486 298.399" stroke="#53FA97" stroke-linecap="round"/>
<path d="M115.703 289.269L108.92 287" stroke="#53FA97" stroke-linecap="round"/>
<path d="M108.841 294.01L108.92 287" stroke="#53FA97" stroke-linecap="round"/>
<path d="M115.703 289.269L115.624 296.279" stroke="#53FA97" stroke-linecap="round"/>
<path d="M108.841 294.01L115.624 296.279" stroke="#53FA97" stroke-linecap="round"/>
<path d="M105.627 302.878L108.841 294.01" stroke="#53FA97" stroke-linecap="round"/>
<path d="M99.3315 294.032L108.841 294.01" stroke="#53FA97" stroke-linecap="round"/>
<path d="M96.0146 206.428L80.0255 203.989" stroke="#53FA97" stroke-linecap="round"/>
<path d="M80.0256 203.989L82.7629 211.508" stroke="#53FA97" stroke-linecap="round"/>
<path d="M88.0203 205.208L82.763 211.508" stroke="#53FA97" stroke-linecap="round"/>
<path d="M88.0203 205.208L94.9086 213.361" stroke="#53FA97" stroke-linecap="round"/>
<path d="M85.9114 200.659L82.793 204.411" stroke="#53FA97" stroke-linecap="round"/>
<path d="M89.4473 201.198L86.0214 204.903" stroke="#53FA97" stroke-linecap="round"/>
<path d="M324.495 251.036L343.69 244.189" stroke="#53FA97" stroke-linecap="round"/>
<path d="M339.922 255.816L328.264 239.409" stroke="#53FA97" stroke-linecap="round"/>
<path d="M338.976 240.1L340.304 245.068" stroke="#53FA97" stroke-linecap="round"/>
<path d="M342.362 239.221L343.69 244.189" stroke="#53FA97" stroke-linecap="round"/>
<path d="M286.524 120.287L277.246 133.251" stroke="#53FA97" stroke-linecap="round"/>
<path d="M277.939 124.998L280.012 129.387" stroke="#53FA97" stroke-linecap="round"/>
<path d="M279.545 122.754L281.617 127.143" stroke="#53FA97" stroke-linecap="round"/>
<path d="M280.012 129.387L284.939 129.787" stroke="#53FA97" stroke-linecap="round"/>
<path d="M282.866 125.398L284.939 129.787" stroke="#53FA97" stroke-linecap="round"/>
<path d="M276.428 321.014L285.525 334.1" stroke="#53FA97" stroke-linecap="round"/>
<path d="M285.499 324.552L283.339 330.955" stroke="#53FA97" stroke-linecap="round"/>
<path d="M278.615 324.16L276.455 330.563" stroke="#53FA97" stroke-linecap="round"/>
<path d="M283.339 330.955L276.455 330.563" stroke="#53FA97" stroke-linecap="round"/>
<path d="M285.499 324.552L278.615 324.16" stroke="#53FA97" stroke-linecap="round"/>
<path d="M287.686 327.697L285.526 334.1" stroke="#53FA97" stroke-linecap="round"/>
<path d="M137.927 116.682L146.883 129.861" stroke="#53FA97" stroke-linecap="round"/>
<path d="M145.316 116.083L139.696 130.497" stroke="#53FA97" stroke-linecap="round"/>
<path d="M134.788 123.288L150.417 123.59" stroke="#53FA97" stroke-linecap="round"/>
<path d="M137.927 116.682L134.814 123.271" stroke="#53FA97" stroke-linecap="round"/>
<path d="M236.47 97.6533L233.745 113.25" stroke="#53FA97" stroke-linecap="round"/>
<path d="M241.676 99.6032L229.381 104.495" stroke="#53FA97" stroke-linecap="round"/>
<path d="M239.318 113.1L229.381 104.495" stroke="#53FA97" stroke-linecap="round"/>
<path d="M228.37 111.272L240.666 106.38" stroke="#53FA97" stroke-linecap="round"/>
<path d="M230.728 97.7748L240.666 106.38" stroke="#53FA97" stroke-linecap="round"/>
<path d="M188.934 338.4L191.883 353.958" stroke="#53FA97" stroke-linecap="round"/>
<path d="M195.97 340.684L185.017 351.786" stroke="#53FA97" stroke-linecap="round"/>
<path d="M183.395 343.272L190.408 346.179" stroke="#53FA97" stroke-linecap="round"/>
<path d="M188.934 338.4L183.426 343.266" stroke="#53FA97" stroke-linecap="round"/>
<path d="M321.242 154.847L308.073 164.042" stroke="#53FA97" stroke-linecap="round"/>
<path d="M322.103 162.048L307.181 157.04" stroke="#53FA97" stroke-linecap="round"/>
<path d="M314.384 152.002L314.602 167.285" stroke="#53FA97" stroke-linecap="round"/>
<path d="M102.46 149.46L112.32 166.958" stroke="#53FA97" stroke-linecap="round"/>
<path d="M117.298 155.775L97.482 160.643" stroke="#53FA97" stroke-linecap="round"/>
<path d="M106.018 167.009L110.359 164.119" stroke="#53FA97" stroke-linecap="round"/>
<path d="M107.979 169.848L112.32 166.958" stroke="#53FA97" stroke-linecap="round"/>
<path d="M182.825 97.682L186.519 113.087" stroke="#53FA97" stroke-linecap="round"/>
<path d="M180.69 107.078L185.418 108.495" stroke="#53FA97" stroke-linecap="round"/>
<path d="M180.051 104.412L184.779 105.829" stroke="#53FA97" stroke-linecap="round"/>
<path d="M185.418 108.495L189.009 105.172" stroke="#53FA97" stroke-linecap="round"/>
<path d="M184.281 103.755L189.009 105.172" stroke="#53FA97" stroke-linecap="round"/>
<path d="M240.166 353.041L237.033 337.517" stroke="#53FA97" stroke-linecap="round"/>
<path d="M233.102 350.837L243.924 339.612" stroke="#53FA97" stroke-linecap="round"/>
<path d="M245.646 348.107L231.318 341.995" stroke="#53FA97" stroke-linecap="round"/>
<path d="M83.3171 255.296L99.0728 251.686" stroke="#53FA97" stroke-linecap="round"/>
<path d="M92.4426 258.697L95.2854 252.554" stroke="#53FA97" stroke-linecap="round"/>
<path d="M87.1047 254.428L89.9475 248.286" stroke="#53FA97" stroke-linecap="round"/>
<path d="M95.2854 252.554L89.9473 248.286" stroke="#53FA97" stroke-linecap="round"/>
<path d="M92.4426 258.697L87.1046 254.429" stroke="#53FA97" stroke-linecap="round"/>
<path d="M96.23 257.829L99.0727 251.686" stroke="#53FA97" stroke-linecap="round"/>
<path d="M146.575 322.149L137.718 335.391" stroke="#53FA97" stroke-linecap="round"/>
<path d="M150.555 325.966L137.284 325.661" stroke="#53FA97" stroke-linecap="round"/>
<path d="M142.89 337.426L137.284 325.661" stroke="#53FA97" stroke-linecap="round"/>
<path d="M133.595 331.482L146.866 331.788" stroke="#53FA97" stroke-linecap="round"/>
<path d="M141.26 320.023L146.866 331.788" stroke="#53FA97" stroke-linecap="round"/>
<path d="M307.684 290.691L321.179 299.424" stroke="#53FA97" stroke-linecap="round"/>
<path d="M307.684 290.691L307.981 297.695" stroke="#53FA97" stroke-linecap="round"/>
<path d="M314.691 295.226L307.981 297.695" stroke="#53FA97" stroke-linecap="round"/>
<path d="M307.684 290.691L314.394 288.221" stroke="#53FA97" stroke-linecap="round"/>
<path d="M314.691 295.226L314.394 288.222" stroke="#53FA97" stroke-linecap="round"/>
<path d="M324.309 294.938L314.691 295.226" stroke="#53FA97" stroke-linecap="round"/>
<path d="M318.161 303.882L314.691 295.226" stroke="#53FA97" stroke-linecap="round"/>
<path d="M324.837 203.062L340.553 199.294" stroke="#53FA97" stroke-linecap="round"/>
<path d="M329.859 208.395L335.705 194.067" stroke="#53FA97" stroke-linecap="round"/>
<path d="M327.101 196.123L332.695 201.178" stroke="#53FA97" stroke-linecap="round"/>
<path d="M324.837 203.062L327.109 196.153" stroke="#53FA97" stroke-linecap="round"/>
</g>
<g filter="url(#filter1_dd_9_290)">
<rect width="16.0072" height="9.8441" rx="3" transform="matrix(0.801862 0.597509 0.597509 -0.801862 229.634 195.401)" fill="#180A00"/>
<path d="M237.384 194.415C239.214 194.725 240.884 193.314 240.884 191.457L240.884 189.853C240.884 189.541 240.933 189.231 241.029 188.934L241.834 186.433C242.393 184.693 241.281 182.861 239.479 182.556L236.178 181.997C234.544 181.72 232.995 182.82 232.719 184.454L231.71 190.412C231.433 192.045 232.533 193.594 234.167 193.87L237.384 194.415Z" fill="#180A00"/>
<path d="M128.38 136.639L131.755 138.756L136.255 140.631L142.631 142.131L149.006 144.006L155.944 146.819L162.881 149.631L168.132 152.631L179.382 161.632L176.382 163.882L174.132 166.507L171.882 169.882L170.756 173.257L167.006 168.007L162.131 163.882L156.506 160.132L150.506 157.507L138.88 153.756L127.255 153.007L128.38 136.639Z" fill="#180A00"/>
<path d="M50.002 151.881L54.5022 152.256H59.3774L65.3776 151.506L70.6278 150.006L75.128 148.506L80.3782 145.922L97.2539 142.506H100.254H102.879L106.629 141.006L114.505 139.227L123.505 137.462L128.38 136.505L128.252 138.381L127.639 147.381L127.255 153.006C126.751 153.07 118.376 153.317 117.88 153.381C112.52 154.07 115.075 153.427 110.379 154.131C103.922 155.1 98.3134 155.853 92.3787 156.756C88.7673 157.306 85.1741 158.514 81.5033 159.006C79.4094 159.287 76.5402 160.251 74.378 160.506C70.1695 161.004 67.0018 162.313 62.3775 162.757C58.1011 163.167 53.1661 162.731 48.127 162.757L50.002 151.881Z" fill="#180A00"/>
<path d="M111.13 93.7539L112.255 94.1289L113.755 94.879L115.255 96.004L116.38 97.129L117.505 99.0041L118.255 101.629V104.254L117.88 107.254L117.13 112.88L116.38 116.255V120.005L116.755 123.755L118.255 127.505L120.13 130.505L122.755 133.13L125.38 135.006L128.38 136.506L106.629 141.006L108.879 138.756L110.38 135.756L110.005 132.005L108.879 128.63L107.379 124.88L106.629 121.88V118.88L107.379 116.255L110.005 111.755L111.88 106.879L113.005 103.879L113.38 102.379V100.504L113.005 98.6291L112.63 97.129L112.255 95.629L111.13 93.7539Z" fill="#180A00"/>
<path d="M12.8754 25.126L13.2504 24.001L15.5005 26.6261L17.3756 30.0012L18.1256 33.7513L18.5007 37.5015L18.1256 41.2516L17.3756 45.0018L15.1255 54.7522L14.3755 57.7523L14.0005 60.7524V63.7525L14.3755 66.3776L15.1255 69.0027L16.2506 71.6278L18.1256 73.8779L18.8757 74.628L20.3757 75.003H21.1258L21.8758 74.253L22.6258 72.7529L24.8759 69.0027L29.0011 61.5024L35.0013 53.2521L38.0014 49.127L39.5015 47.2519L40.2515 46.1268L40.6265 45.0018V44.2518L40.2515 43.5017L39.5015 42.0017L38.7515 39.7516L38.3764 37.1265V34.1264L39.1265 31.1262L40.2515 28.1261L41.3766 25.876L42.8766 23.6259L46.2518 18.7507L48.1268 16.1256L48.8769 13.8756L49.6269 11.2504L50.3769 12.0005L51.127 13.8756V15.7506L50.7519 17.6257L49.6269 19.8758L48.1268 22.5009L46.2518 28.5011V30.7512L47.0018 33.0013L48.5018 34.8764L49.6269 35.6264H50.7519L53.377 34.5014L56.0021 33.0013L60.8773 30.0012L74.0029 21.7509L78.128 17.6257L80.0031 15.3756L80.7531 13.5005L81.5032 11.6255L81.8782 9.75039V6.75027V1.12504L82.2532 0L83.7532 2.6251L84.8783 5.62522L85.6283 8.25033L86.0033 11.2504V13.8756L85.2533 16.5007L84.5033 18.7507L83.0032 21.0008L78.8781 25.501L74.3779 29.2512L64.2525 35.6264L56.7522 41.6267L49.6269 48.0019L43.6267 55.5022L37.6264 63.3775L32.3762 72.7529L29.0011 82.5033L26.376 92.6287L26.001 95.2538L25.6259 97.5039V102.754V108.754V112.129L26.001 114.755L26.751 117.755L27.501 120.38L28.6261 123.38L29.7511 125.63L33.1262 120.005L35.0013 117.38L37.2514 114.755L39.1265 112.504L41.7516 109.504L44.0017 107.629L47.0018 105.379L50.3769 102.754L66.1275 89.6286L68.3776 87.3785L71.0027 84.3784L72.1278 82.8783L73.2528 80.2532L73.6278 79.1281L74.0029 77.2531L74.7529 77.6281L75.5029 81.0032V84.3784L75.1279 87.3785L73.6278 90.7536L72.1278 93.3787L69.8777 96.7538L67.6276 99.0039L53.002 114.005L48.1268 118.88L43.6267 124.505L41.3766 128.255L39.8765 132.755L39.1265 135.005V137.63L39.5015 140.256L40.2515 142.506L41.3766 145.131L43.2516 147.756L45.8767 150.006L49.2519 151.506L53.7521 152.256H58.6273L63.5024 151.881L68.0026 150.756L73.2528 149.256L77.753 146.631L78.128 144.381V141.756L75.1279 136.88L71.7528 131.255L67.2526 124.88L61.6274 117.005L53.7521 104.254L51.502 100.129L49.2519 95.2538L48.1268 90.3786L47.7518 85.1284L48.1268 79.8782L49.6269 75.003L51.127 70.5028L53.7521 66.3776L57.1272 63.0025L60.8773 60.0024L65.3775 57.0023L70.2527 54.0021L74.3779 51.377L77.753 49.127L80.3781 47.2519L83.0032 45.0018L84.5033 43.1267L85.6283 40.8766L86.7534 38.6265L87.8784 35.6264L88.2534 36.0014L89.0035 37.8765V40.5016V42.3767L87.8784 45.0018L84.8783 49.877L80.3781 54.3772L75.5029 58.8773L69.8777 63.3775L65.3775 67.8777L61.6274 72.7529L59.0023 77.2531L58.2522 82.1283V87.3785L59.3773 93.0037L62.7524 99.3789L66.1275 105.754L69.5027 110.629L71.7528 113.63L74.7529 117.005L76.628 117.755L78.503 117.005L80.3781 115.88L83.0032 114.38L85.6283 111.754L87.5034 108.379L89.0035 104.629L89.3785 99.754V94.8788L89.7535 90.3786L90.8785 87.0035L92.3786 84.7534L93.8787 83.2533L93.5036 88.8785L93.8787 91.1286L94.6287 94.8788L96.1287 100.879L96.5038 104.629L96.1287 109.504L95.7537 113.255L94.6287 115.88L92.7536 118.505L90.5035 121.505L87.8784 124.13L85.6283 126.755L84.8783 129.38L86.3784 133.505L89.3785 137.255L93.1286 140.256L97.2538 142.506L60.8773 162.006L48.1268 162.756L44.3767 162.006L41.3766 160.506L38.7515 159.006L36.8764 157.506L35.1888 155.819L33.5013 154.131L30.5011 150.381L28.251 147.006L26.376 143.256L20.7507 131.63L17.3756 124.13L15.1255 117.005L13.6255 111.754L13.2504 108.004V103.504L12.8754 99.3789L10.6253 91.8787L6.50018 81.3782L4.6251 76.503L2.75003 72.0029L2 68.2527V64.8776L2.37501 61.8775L3.12504 59.2524L3.87507 57.0023L5.37513 53.6271L7.62522 49.127L9.87531 44.6268L11.7504 39.7516L12.8754 35.6264L13.2504 31.5013V28.1261L12.8754 25.126Z" fill="#180A00"/>
<path d="M294.261 136.639L290.886 138.756L286.386 140.631L280.011 142.131L273.635 144.006L266.698 146.819L259.76 149.631L254.51 152.631L243.259 161.632L246.259 163.882L248.509 166.507L250.759 169.882L251.885 173.257L255.635 168.007L260.51 163.882L266.135 160.132L272.135 157.507L283.761 153.756L295.386 153.007L294.261 136.639Z" fill="#180A00"/>
<path d="M372.639 151.881L368.139 152.256H363.264L357.263 151.506L352.013 150.006L347.513 148.506L342.263 145.922L325.387 142.506H322.387H319.762L316.012 141.006L308.137 139.227L299.136 137.462L294.261 136.505L294.389 138.381L295.002 147.381L295.386 153.006C295.89 153.07 304.265 153.317 304.761 153.381C310.121 154.07 307.566 153.427 312.262 154.131C318.719 155.1 324.328 155.853 330.262 156.756C333.874 157.306 337.467 158.514 341.138 159.006C343.232 159.287 346.101 160.251 348.263 160.506C352.472 161.004 355.639 162.313 360.264 162.757C364.54 163.167 369.475 162.731 374.514 162.757L372.639 151.881Z" fill="#180A00"/>
<path d="M311.512 93.7539L310.387 94.1289L308.887 94.879L307.386 96.004L306.261 97.129L305.136 99.0041L304.386 101.629V104.254L304.761 107.254L305.511 112.88L306.261 116.255V120.005L305.886 123.755L304.386 127.505L302.511 130.505L299.886 133.13L297.261 135.006L294.261 136.506L316.012 141.006L313.762 138.756L312.262 135.756L312.637 132.005L313.762 128.63L315.262 124.88L316.012 121.88V118.88L315.262 116.255L312.637 111.755L310.762 106.879L309.637 103.879L309.262 102.379V100.504L309.637 98.6291L310.012 97.129L310.387 95.629L311.512 93.7539Z" fill="#180A00"/>
<path d="M409.766 25.126L409.391 24.001L407.14 26.6261L405.265 30.0012L404.515 33.7513L404.14 37.5015L404.515 41.2516L405.265 45.0018L407.515 54.7522L408.265 57.7523L408.641 60.7524V63.7525L408.265 66.3776L407.515 69.0027L406.39 71.6278L404.515 73.8779L403.765 74.628L402.265 75.003H401.515L400.765 74.253L400.015 72.7529L397.765 69.0027L393.64 61.5024L387.64 53.2521L384.64 49.127L383.14 47.2519L382.389 46.1268L382.014 45.0018V44.2518L382.389 43.5017L383.14 42.0017L383.89 39.7516L384.265 37.1265V34.1264L383.515 31.1262L382.389 28.1261L381.264 25.876L379.764 23.6259L376.389 18.7507L374.514 16.1256L373.764 13.8756L373.014 11.2504L372.264 12.0005L371.514 13.8756V15.7506L371.889 17.6257L373.014 19.8758L374.514 22.5009L376.389 28.5011V30.7512L375.639 33.0013L374.139 34.8764L373.014 35.6264H371.889L369.264 34.5014L366.639 33.0013L361.764 30.0012L348.638 21.7509L344.513 17.6257L342.638 15.3756L341.888 13.5005L341.138 11.6255L340.763 9.75039V6.75027V1.12504L340.388 0L338.888 2.6251L337.763 5.62522L337.013 8.25033L336.638 11.2504V13.8756L337.388 16.5007L338.138 18.7507L339.638 21.0008L343.763 25.501L348.263 29.2512L358.389 35.6264L365.889 41.6267L373.014 48.0019L379.014 55.5022L385.015 63.3775L390.265 72.7529L393.64 82.5033L396.265 92.6287L396.64 95.2538L397.015 97.5039V102.754V108.754V112.129L396.64 114.755L395.89 117.755L395.14 120.38L394.015 123.38L392.89 125.63L389.515 120.005L387.64 117.38L385.39 114.755L383.515 112.504L380.889 109.504L378.639 107.629L375.639 105.379L372.264 102.754L356.513 89.6286L354.263 87.3785L351.638 84.3784L350.513 82.8783L349.388 80.2532L349.013 79.1281L348.638 77.2531L347.888 77.6281L347.138 81.0032V84.3784L347.513 87.3785L349.013 90.7536L350.513 93.3787L352.763 96.7538L355.013 99.0039L369.639 114.005L374.514 118.88L379.014 124.505L381.264 128.255L382.764 132.755L383.515 135.005V137.63L383.14 140.256L382.389 142.506L381.264 145.131L379.389 147.756L376.764 150.006L373.389 151.506L368.889 152.256H364.014L359.139 151.881L354.638 150.756L349.388 149.256L344.888 146.631L344.513 144.381V141.756L347.513 136.88L350.888 131.255L355.388 124.88L361.014 117.005L368.889 104.254L371.139 100.129L373.389 95.2538L374.514 90.3786L374.889 85.1284L374.514 79.8782L373.014 75.003L371.514 70.5028L368.889 66.3776L365.514 63.0025L361.764 60.0024L357.263 57.0023L352.388 54.0021L348.263 51.377L344.888 49.127L342.263 47.2519L339.638 45.0018L338.138 43.1267L337.013 40.8766L335.888 38.6265L334.763 35.6264L334.388 36.0014L333.638 37.8765V40.5016V42.3767L334.763 45.0018L337.763 49.877L342.263 54.3772L347.138 58.8773L352.763 63.3775L357.263 67.8777L361.014 72.7529L363.639 77.2531L364.389 82.1283V87.3785L363.264 93.0037L359.889 99.3789L356.513 105.754L353.138 110.629L350.888 113.63L347.888 117.005L346.013 117.755L344.138 117.005L342.263 115.88L339.638 114.38L337.013 111.754L335.138 108.379L333.638 104.629L333.263 99.754V94.8788L332.888 90.3786L331.762 87.0035L330.262 84.7534L328.762 83.2533L329.137 88.8785L328.762 91.1286L328.012 94.8788L326.512 100.879L326.137 104.629L326.512 109.504L326.887 113.255L328.012 115.88L329.887 118.505L332.137 121.505L334.763 124.13L337.013 126.755L337.763 129.38L336.263 133.505L333.263 137.255L329.512 140.256L325.387 142.506L361.764 162.006L374.514 162.756L378.264 162.006L381.264 160.506L383.89 159.006L385.765 157.506L387.452 155.819L389.14 154.131L392.14 150.381L394.39 147.006L396.265 143.256L401.89 131.63L405.265 124.13L407.515 117.005L409.016 111.754L409.391 108.004V103.504L409.766 99.3789L412.016 91.8787L416.141 81.3782L418.016 76.503L419.891 72.0029L420.641 68.2527V64.8776L420.266 61.8775L419.516 59.2524L418.766 57.0023L417.266 53.6271L415.016 49.127L412.766 44.6268L410.891 39.7516L409.766 35.6264L409.391 31.5013V28.1261L409.766 25.126Z" fill="#180A00"/>
<ellipse cx="211.258" cy="180.758" rx="31.8763" ry="22.5009" fill="#180A00"/>
<path d="M176.382 214.134C176.574 217.243 177.25 219.883 177.882 222.009C179.059 225.969 180.216 228.144 178.737 228.235C176.463 228.376 174.175 221.276 173.626 212.378C173.077 203.48 174.475 196.153 176.749 196.012C178.014 195.934 177.882 199.508 176.757 202.883C176.332 206.144 176.138 210.185 176.382 214.134Z" fill="#180A00"/>
<rect x="174.882" y="197.072" width="16.0072" height="9.8441" rx="3" transform="rotate(-36.6917 174.882 197.072)" fill="#180A00"/>
<rect x="182.984" y="196.172" width="12.0425" height="9.81296" rx="3" transform="rotate(-106.774 182.984 196.172)" fill="#180A00"/>
<path d="M183.68 197.051C181.667 197.265 180.049 195.463 180.217 193.446C180.487 190.21 180.12 187.419 179.045 183.892C178.473 182.018 179.687 180.033 181.635 179.826L184.564 179.515C186.211 179.339 187.689 180.533 187.864 182.181L189.062 193.463C189.237 195.11 188.044 196.588 186.396 196.763L183.68 197.051Z" fill="#180A00"/>
<path d="M181.878 163.812C184.921 165.251 187.288 165.029 190.6 164.423C192.038 164.16 193.359 165.256 193.348 166.718V166.718C193.338 168.003 192.288 169.036 191.003 169.027L183.605 168.97C182.515 168.961 181.506 168.366 181.064 167.369C180.206 165.437 179.261 162.576 181.878 163.812Z" fill="#180A00"/>
<path d="M231.259 164.374C235.326 165.132 237.824 164.922 240.697 164.672C242.129 164.547 243.336 165.686 243.325 167.122V167.122C243.314 168.493 242.194 169.596 240.823 169.586L232.591 169.522C231.72 169.516 230.89 169.136 230.384 168.427C229.164 166.717 227.433 163.66 231.259 164.374Z" fill="#180A00"/>
<path d="M172.632 175.507C174.277 169.782 176.096 166.961 181.258 162.757C182.528 163.942 183.319 164.542 185.008 165.382L179.007 183.758C177.839 180.406 176.56 178.587 172.632 175.507Z" fill="#180A00"/>
<ellipse cx="31.8763" cy="22.5009" rx="31.8763" ry="22.5009" transform="matrix(-1 0 0 1 243.346 158.256)" fill="#180A00"/>
<path d="M246.134 212.633C245.586 221.532 241.901 228.09 244.175 228.231C246.449 228.371 248.553 221.276 249.102 212.377C249.651 203.479 248.253 196.152 245.979 196.012C243.705 195.872 246.683 203.735 246.134 212.633Z" fill="#180A00"/>
<rect width="16.0072" height="9.8441" rx="3" transform="matrix(-0.801862 -0.597509 -0.597509 0.801862 247.846 197.072)" fill="#180A00"/>
<rect width="12.0425" height="9.81296" rx="3" transform="matrix(0.288603 -0.957449 -0.957449 -0.288603 239.744 196.172)" fill="#180A00"/>
<path d="M239.048 197.051C241.061 197.265 242.679 195.463 242.511 193.446C242.242 190.21 242.608 187.419 243.683 183.892C244.255 182.018 243.042 180.032 241.093 179.825L238.164 179.514C236.517 179.339 235.039 180.533 234.864 182.181L233.666 193.462C233.491 195.11 234.685 196.588 236.332 196.763L239.048 197.051Z" fill="#180A00"/>
<path d="M240.85 163.812C237.807 165.25 235.44 165.029 232.128 164.423C230.691 164.16 229.369 165.256 229.38 166.717V166.717C229.39 168.002 230.44 169.036 231.725 169.026L239.123 168.969C240.213 168.961 241.222 168.365 241.664 167.369C242.522 165.437 243.467 162.576 240.85 163.812Z" fill="#180A00"/>
<path d="M191.469 164.373C187.402 165.132 184.904 164.922 182.031 164.672C180.599 164.547 179.392 165.685 179.403 167.122V167.122C179.414 168.493 180.534 169.596 181.905 169.585L190.137 169.522C191.008 169.515 191.839 169.136 192.344 168.427C193.564 166.717 195.295 163.659 191.469 164.373Z" fill="#180A00"/>
<path d="M250.096 175.507C248.451 169.782 246.632 166.96 241.471 162.756C240.2 163.942 239.409 164.541 237.72 165.382L243.721 183.757C244.889 180.406 246.168 178.587 250.096 175.507Z" fill="#180A00"/>
<path d="M174.507 204.383L176.382 198.758L180.882 195.008L187.632 192.008L212.008 186.757L232.259 190.508L242.01 195.008L245.76 198.758L246.51 203.258L246.135 204.008L245.385 202.883L245.01 202.508L244.26 202.883L243.135 204.008L242.385 206.258L240.884 208.508L238.634 210.008L236.759 211.508L234.509 214.134L234.134 216.759L235.634 217.134L237.884 216.759L238.634 218.259V220.134V223.509L239.384 225.009L240.509 226.134L242.01 225.759L243.51 224.448L244.26 222.759L246.51 225.384L245.385 227.634L243.51 228.759L239.759 230.634L238.259 232.509L237.509 234.759L236.009 237.384L235.634 240.385L235.259 246.01L233.759 255.385L232.634 258.385L230.759 261.01L229.634 267.386L228.134 279.011L226.259 289.512L224.009 297.387L222.134 303.387L221.009 305.637L219.509 307.512L217.634 308.637L215.928 309.2L213.508 309.387H211.258V278.636V275.261H211.633L212.383 275.823L213.508 276.761L213.883 277.511L214.258 278.636V279.386L213.883 280.511L213.696 281.261L213.133 283.136V285.761V289.137V296.637L213.508 301.512L214.258 303.012L215.383 303.762L216.884 303.012L218.009 300.762L218.384 298.512L218.759 295.887L219.134 289.512V281.261L218.384 280.886L217.634 279.761V278.636L218.384 277.886L219.134 277.136L219.279 275.823L219.134 275.261L217.259 276.386L216.509 276.761H215.758L215.008 276.011L213.508 274.136L212.758 273.386L211.258 273.011L209.758 273.386L209.008 274.136L207.883 276.011L206.758 276.761H206.008L205.258 276.386L203.383 275.261V275.823L203.758 277.511L204.508 278.261L204.883 279.386L204.133 280.136L203.758 281.73V287.636V294.762L204.133 297.762L204.508 300.387L205.258 302.262L206.008 303.762L207.133 304.512L207.883 304.137L208.633 303.012L209.383 300.762V298.512V285.761L209.008 282.761L208.633 281.261L208.446 280.324L208.258 279.386V278.261L208.633 277.511L209.008 276.761L210.133 275.823L210.883 275.261H211.258V278.636V309.387H208.633L206.008 309.012L204.133 308.262L202.633 307.137L201.133 304.887L199.258 300.762L197.758 295.512L195.883 288.386L194.008 276.011L192.508 263.636L191.007 260.635L189.507 258.385L188.382 255.01L187.632 251.26L186.882 243.01L186.507 238.885L185.382 234.759L183.882 231.009L180.507 228.759L178.257 228.009L177.132 226.884L177.882 222.009L178.632 223.509L180.132 225.009L181.632 225.759H182.757L183.882 223.134L184.257 221.634L183.882 219.759L183.132 218.259L183.507 217.134L184.632 216.759L186.507 217.134L188.382 216.759V215.259L188.007 213.759L186.132 212.258L183.507 210.008L181.632 208.883L180.882 207.383L180.132 206.258L179.382 204.758L178.257 203.258L177.132 202.508L176.382 203.258L176.007 204.383H174.507Z" fill="#180A00"/>
</g>
<defs>
<filter id="filter0_d_9_290" x="58.7185" y="76.5564" width="305.465" height="301.955" filterUnits="userSpaceOnUse" color-interpolation-filters="sRGB">
<feFlood flood-opacity="0" result="BackgroundImageFix"/>
<feColorMatrix in="SourceAlpha" type="matrix" values="0 0 0 0 0 0 0 0 0 0 0 0 0 0 0 0 0 0 127 0" result="hardAlpha"/>
<feOffset/>
<feGaussianBlur stdDeviation="10"/>
<feComposite in2="hardAlpha" operator="out"/>
<feColorMatrix type="matrix" values="0 0 0 0 0.287083 0 0 0 0 0.883333 0 0 0 0 0.527992 0 0 0 1 0"/>
<feBlend mode="normal" in2="BackgroundImageFix" result="effect1_dropShadow_9_290"/>
<feBlend mode="normal" in="SourceGraphic" in2="effect1_dropShadow_9_290" result="shape"/>
</filter>
<filter id="filter1_dd_9_290" x="0" y="0" width="422.641" height="313.387" filterUnits="userSpaceOnUse" color-interpolation-filters="sRGB">
<feFlood flood-opacity="0" result="BackgroundImageFix"/>
<feColorMatrix in="SourceAlpha" type="matrix" values="0 0 0 0 0 0 0 0 0 0 0 0 0 0 0 0 0 0 127 0" result="hardAlpha"/>
<feOffset dy="4"/>
<feComposite in2="hardAlpha" operator="out"/>
<feColorMatrix type="matrix" values="0 0 0 0 0.164706 0 0 0 0 0.552941 0 0 0 0 0.321569 0 0 0 1 0"/>
<feBlend mode="normal" in2="BackgroundImageFix" result="effect1_dropShadow_9_290"/>
<feColorMatrix in="SourceAlpha" type="matrix" values="0 0 0 0 0 0 0 0 0 0 0 0 0 0 0 0 0 0 127 0" result="hardAlpha"/>
<feOffset dy="2"/>
<feGaussianBlur stdDeviation="1"/>
<feComposite in2="hardAlpha" operator="out"/>
<feColorMatrix type="matrix" values="0 0 0 0 0.333333 0 0 0 0 1 0 0 0 0 0.602693 0 0 0 1 0"/>
<feBlend mode="normal" in2="effect1_dropShadow_9_290" result="effect2_dropShadow_9_290"/>
<feBlend mode="normal" in="SourceGraphic" in2="effect2_dropShadow_9_290" result="shape"/>
</filter>
</defs>
</svg>
