<svg width="428" height="165" viewBox="0 0 428 165" fill="none" xmlns="http://www.w3.org/2000/svg">
<rect x="14.9302" width="398.14" height="165" rx="8" fill="#CB6E00"/>
<ellipse cx="413.5" cy="28" rx="10.5" ry="10" fill="#222222"/>
<ellipse cx="413.5" cy="64" rx="10.5" ry="10" fill="#222222"/>
<ellipse cx="413.5" cy="100" rx="10.5" ry="10" fill="#222222"/>
<ellipse cx="413.5" cy="136" rx="10.5" ry="10" fill="#222222"/>
<ellipse cx="15.5" cy="28" rx="10.5" ry="10" fill="#222222"/>
<ellipse cx="15.5" cy="64" rx="10.5" ry="10" fill="#222222"/>
<ellipse cx="15.5" cy="100" rx="10.5" ry="10" fill="#222222"/>
<ellipse cx="15.5" cy="136" rx="10.5" ry="10" fill="#222222"/>
<rect x="52.8734" y="12.485" width="317.829" height="137.823" stroke="#D9D9D9" stroke-width="4"/>
<path d="M123.756 99V59.7273H137.026C140.094 59.7273 142.612 60.2514 144.581 61.2997C146.55 62.3352 148.007 63.7607 148.953 65.576C149.899 67.3913 150.372 69.456 150.372 71.7699C150.372 74.0838 149.899 76.1357 148.953 77.9254C148.007 79.7152 146.556 81.1214 144.6 82.1442C142.644 83.1541 140.145 83.6591 137.102 83.6591H126.364V79.3636H136.949C139.045 79.3636 140.733 79.0568 142.011 78.4432C143.303 77.8295 144.236 76.9602 144.811 75.8352C145.399 74.6974 145.693 73.3423 145.693 71.7699C145.693 70.1974 145.399 68.8232 144.811 67.647C144.223 66.4709 143.283 65.5632 141.992 64.924C140.701 64.272 138.994 63.946 136.872 63.946H128.511V99H123.756ZM142.241 81.358L151.906 99H146.384L136.872 81.358H142.241ZM169.716 99.6136C166.878 99.6136 164.43 98.9872 162.372 97.7344C160.326 96.4688 158.747 94.7045 157.635 92.4418C156.536 90.1662 155.986 87.5199 155.986 84.5028C155.986 81.4858 156.536 78.8267 157.635 76.5256C158.747 74.2116 160.294 72.4091 162.276 71.1179C164.27 69.8139 166.597 69.1619 169.256 69.1619C170.79 69.1619 172.305 69.4176 173.801 69.929C175.296 70.4403 176.658 71.2713 177.885 72.4219C179.112 73.5597 180.09 75.0682 180.819 76.9474C181.548 78.8267 181.912 81.1406 181.912 83.8892V85.8068H159.208V81.8949H177.31C177.31 80.233 176.977 78.75 176.313 77.446C175.661 76.142 174.727 75.1129 173.513 74.3587C172.311 73.6044 170.892 73.2273 169.256 73.2273C167.453 73.2273 165.894 73.6747 164.577 74.5696C163.273 75.4517 162.269 76.6023 161.566 78.0213C160.863 79.4403 160.512 80.9616 160.512 82.5852V85.1932C160.512 87.4176 160.895 89.3033 161.662 90.8501C162.442 92.3842 163.522 93.554 164.903 94.3594C166.284 95.152 167.888 95.5483 169.716 95.5483C170.905 95.5483 171.979 95.3821 172.938 95.0497C173.909 94.7045 174.747 94.1932 175.45 93.5156C176.153 92.8253 176.696 91.9687 177.08 90.946L181.452 92.1733C180.992 93.6562 180.218 94.9602 179.132 96.0852C178.045 97.1974 176.703 98.0668 175.105 98.6932C173.507 99.3068 171.71 99.6136 169.716 99.6136ZM200.686 110.659C198.499 110.659 196.62 110.378 195.048 109.815C193.475 109.266 192.165 108.537 191.117 107.629C190.081 106.734 189.257 105.776 188.643 104.753L192.248 102.222C192.657 102.759 193.175 103.372 193.801 104.062C194.428 104.766 195.284 105.373 196.371 105.884C197.47 106.408 198.909 106.67 200.686 106.67C203.063 106.67 205.026 106.095 206.573 104.945C208.119 103.794 208.893 101.991 208.893 99.5369V93.554H208.509C208.177 94.0909 207.704 94.7557 207.09 95.5483C206.49 96.3281 205.62 97.0249 204.482 97.6385C203.357 98.2393 201.836 98.5398 199.919 98.5398C197.541 98.5398 195.406 97.9773 193.514 96.8523C191.634 95.7273 190.145 94.0909 189.046 91.9432C187.959 89.7955 187.416 87.1875 187.416 84.1193C187.416 81.1023 187.946 78.4751 189.007 76.2379C190.068 73.9879 191.545 72.2493 193.437 71.022C195.329 69.782 197.515 69.1619 199.995 69.1619C201.913 69.1619 203.434 69.4815 204.559 70.1207C205.697 70.7472 206.566 71.4631 207.167 72.2685C207.781 73.0611 208.254 73.7131 208.586 74.2244H209.046V69.5455H213.419V99.8438C213.419 102.375 212.843 104.433 211.693 106.018C210.555 107.616 209.021 108.786 207.09 109.528C205.173 110.282 203.038 110.659 200.686 110.659ZM200.532 94.4744C202.347 94.4744 203.882 94.0589 205.134 93.228C206.387 92.397 207.34 91.2017 207.992 89.642C208.644 88.0824 208.97 86.2159 208.97 84.0426C208.97 81.9205 208.65 80.0476 208.011 78.424C207.372 76.8004 206.426 75.5284 205.173 74.608C203.92 73.6875 202.373 73.2273 200.532 73.2273C198.615 73.2273 197.017 73.7131 195.738 74.6847C194.472 75.6562 193.52 76.9602 192.881 78.5966C192.254 80.233 191.941 82.0483 191.941 84.0426C191.941 86.0881 192.261 87.897 192.9 89.4695C193.552 91.0291 194.511 92.2564 195.776 93.1513C197.055 94.0334 198.64 94.4744 200.532 94.4744ZM240.265 86.9574V69.5455H244.791V99H240.265V94.0142H239.958C239.268 95.5099 238.194 96.782 236.737 97.8303C235.279 98.8658 233.438 99.3835 231.214 99.3835C229.373 99.3835 227.737 98.9808 226.305 98.1754C224.873 97.3572 223.748 96.13 222.93 94.4936C222.112 92.8445 221.703 90.767 221.703 88.2614V69.5455H226.228V87.9545C226.228 90.1023 226.829 91.8153 228.031 93.0938C229.245 94.3722 230.792 95.0114 232.671 95.0114C233.796 95.0114 234.941 94.7237 236.104 94.1484C237.28 93.5732 238.264 92.6911 239.057 91.5021C239.862 90.3132 240.265 88.7983 240.265 86.9574ZM257.605 59.7273V99H253.08V59.7273H257.605ZM274.562 99.6903C272.695 99.6903 271.001 99.3388 269.48 98.6357C267.959 97.9197 266.751 96.8906 265.856 95.5483C264.961 94.1932 264.513 92.5568 264.513 90.6392C264.513 88.9517 264.846 87.5838 265.51 86.5355C266.175 85.4744 267.064 84.6435 268.176 84.0426C269.288 83.4418 270.515 82.9943 271.858 82.7003C273.213 82.3935 274.574 82.1506 275.942 81.9716C277.732 81.7415 279.183 81.5689 280.295 81.4538C281.42 81.326 282.238 81.1151 282.75 80.821C283.274 80.527 283.536 80.0156 283.536 79.2869V79.1335C283.536 77.2415 283.018 75.7713 281.983 74.723C280.96 73.6747 279.407 73.1506 277.323 73.1506C275.162 73.1506 273.469 73.6236 272.241 74.5696C271.014 75.5156 270.151 76.5256 269.653 77.5994L265.357 76.0653C266.124 74.2756 267.147 72.8821 268.425 71.8849C269.716 70.875 271.123 70.1719 272.644 69.7756C274.178 69.3665 275.687 69.1619 277.17 69.1619C278.116 69.1619 279.202 69.277 280.43 69.5071C281.67 69.7244 282.865 70.1783 284.015 70.8686C285.179 71.5589 286.144 72.6009 286.911 73.9943C287.678 75.3878 288.062 77.2543 288.062 79.5938V99H283.536V95.0114H283.306C282.999 95.6506 282.488 96.3345 281.772 97.0632C281.056 97.7919 280.104 98.4119 278.915 98.9233C277.726 99.4347 276.275 99.6903 274.562 99.6903ZM275.252 95.625C277.042 95.625 278.55 95.2734 279.778 94.5703C281.018 93.8672 281.951 92.9595 282.577 91.8473C283.216 90.7351 283.536 89.5653 283.536 88.3381V84.196C283.344 84.4261 282.922 84.6371 282.27 84.8288C281.631 85.0078 280.89 85.1676 280.046 85.3082C279.215 85.4361 278.403 85.5511 277.611 85.6534C276.831 85.7429 276.198 85.8196 275.712 85.8835C274.536 86.0369 273.437 86.2862 272.414 86.6314C271.404 86.9638 270.586 87.4687 269.959 88.1463C269.346 88.8111 269.039 89.7187 269.039 90.8693C269.039 92.4418 269.621 93.6307 270.784 94.4361C271.96 95.2287 273.449 95.625 275.252 95.625ZM296.322 99V69.5455H300.694V73.9943H301.001C301.538 72.5369 302.509 71.3544 303.915 70.4467C305.322 69.5391 306.907 69.0852 308.671 69.0852C309.004 69.0852 309.419 69.0916 309.918 69.1044C310.416 69.1172 310.793 69.1364 311.049 69.1619V73.7642C310.896 73.7259 310.544 73.6683 309.994 73.5916C309.457 73.5021 308.888 73.4574 308.288 73.4574C306.856 73.4574 305.577 73.7578 304.452 74.3587C303.34 74.9467 302.458 75.7649 301.806 76.8132C301.167 77.8487 300.847 79.0312 300.847 80.3608V99H296.322Z" fill="white"/>
</svg>
