<svg width="428" height="165" viewBox="0 0 428 165" fill="none" xmlns="http://www.w3.org/2000/svg">
<rect x="14.9302" width="398.14" height="165" rx="8" fill="#AB7E33"/>
<ellipse cx="413.5" cy="27" rx="10.5" ry="10" fill="#222222"/>
<ellipse cx="413.5" cy="63" rx="10.5" ry="10" fill="#222222"/>
<ellipse cx="413.5" cy="99" rx="10.5" ry="10" fill="#222222"/>
<ellipse cx="413.5" cy="135" rx="10.5" ry="10" fill="#222222"/>
<path d="M154.724 55.1818L170.702 100.486H171.332L187.31 55.1818H194.142L174.381 109H167.653L147.892 55.1818H154.724ZM209.042 55.1818V109H202.525V55.1818H209.042ZM222.109 109V55.1818H240.294C244.516 55.1818 247.967 55.9439 250.647 57.468C253.345 58.9747 255.342 61.0156 256.639 63.5909C257.935 66.1662 258.583 69.0393 258.583 72.2102C258.583 75.3812 257.935 78.263 256.639 80.8558C255.36 83.4486 253.38 85.5159 250.7 87.0575C248.019 88.5817 244.586 89.3438 240.399 89.3438H227.365V83.5625H240.188C243.079 83.5625 245.4 83.0632 247.152 82.0646C248.904 81.066 250.174 79.7171 250.963 78.0178C251.768 76.3009 252.171 74.3651 252.171 72.2102C252.171 70.0554 251.768 68.1283 250.963 66.429C250.174 64.7296 248.895 63.3982 247.126 62.4347C245.356 61.4536 243.009 60.9631 240.083 60.9631H228.626V109H222.109Z" fill="white"/>
<rect x="52.8734" y="12.485" width="317.829" height="137.823" stroke="#D9D9D9" stroke-width="4"/>
<ellipse cx="15.5" cy="27" rx="10.5" ry="10" fill="#222222"/>
<ellipse cx="15.5" cy="63" rx="10.5" ry="10" fill="#222222"/>
<ellipse cx="15.5" cy="99" rx="10.5" ry="10" fill="#222222"/>
<ellipse cx="15.5" cy="135" rx="10.5" ry="10" fill="#222222"/>
</svg>
